<svg height="500" viewBox="0 0 500 500" width="500" xmlns="http://www.w3.org/2000/svg" xmlns:xlink="http://www.w3.org/1999/xlink"><clipPath id="a"><path d="m0 0h500v500h-500z"/></clipPath><g clip-path="url(#a)"><g transform="translate(-104.671 -34.531)"><path d="m583.171 246.071-37.656-2.471a192.527 192.527 0 0 0 -27.193-65.7l24.817-28.335a9.55 9.55 0 0 0 -.382-13.025l-40.792-40.798a9.547 9.547 0 0 0 -13.025-.382l-28.34 24.817a192.883 192.883 0 0 0 -65.7-27.193l-2.471-37.656c0-4.76-4.187-8.656-9.225-8.656h-57.623a9.558 9.558 0 0 0 -9.508 8.938l-2.473 37.657a191.753 191.753 0 0 0 -65.7 27.193l-28.338-24.818a9.547 9.547 0 0 0 -13.025.382l-40.792 40.792a9.547 9.547 0 0 0 -.382 13.025l24.817 28.335a192.882 192.882 0 0 0 -27.193 65.7l-37.656 2.471a9.069 9.069 0 0 0 -8.66 9.225v57.628a9.558 9.558 0 0 0 8.938 9.508l37.656 2.471a191.753 191.753 0 0 0 27.193 65.7l-24.817 28.341a9.55 9.55 0 0 0 .382 13.025l40.792 40.792a9.547 9.547 0 0 0 13.025.382l28.336-24.819a192.883 192.883 0 0 0 65.7 27.193l2.471 37.656a9.495 9.495 0 0 0 9.507 8.938h57.623a9.558 9.558 0 0 0 9.508-8.938l2.471-37.656a191.753 191.753 0 0 0 65.7-27.193l28.344 24.819a9.547 9.547 0 0 0 13.025-.382l40.792-40.792a9.547 9.547 0 0 0 .382-13.025l-24.817-28.335a192.881 192.881 0 0 0 27.193-65.7l37.656-2.471a9.495 9.495 0 0 0 8.938-9.508v-57.628a10.53 10.53 0 0 0 -9.5-9.508zm-10.077 58.2-36.04 2.376a9.5 9.5 0 0 0 -8.747 7.892 174.848 174.848 0 0 1 -29.573 71.6 9.459 9.459 0 0 0 .665 11.792l23.771 27.1-28.145 28.145-27.1-23.771a9.584 9.584 0 0 0 -11.792-.665 174.832 174.832 0 0 1 -71.6 29.573 9.5 9.5 0 0 0 -7.892 8.747l-2.376 36.04h-39.84l-2.376-36.04a9.5 9.5 0 0 0 -7.892-8.747 174.85 174.85 0 0 1 -71.6-29.573 9.459 9.459 0 0 0 -11.792.665l-27.1 23.771-28.145-28.145 23.771-27.1a9.584 9.584 0 0 0 .665-11.792 174.831 174.831 0 0 1 -29.573-71.6 9.5 9.5 0 0 0 -8.747-7.892l-35.945-2.372v-39.84l36.04-2.376a9.5 9.5 0 0 0 8.747-7.892 174.849 174.849 0 0 1 29.573-71.6 9.459 9.459 0 0 0 -.665-11.792l-23.771-27.1 28.145-28.145 27.1 23.771a9.584 9.584 0 0 0 11.792.665 174.832 174.832 0 0 1 71.6-29.573 9.5 9.5 0 0 0 7.892-8.747l2.372-35.945h39.84l2.376 36.04a9.5 9.5 0 0 0 7.892 8.747 174.85 174.85 0 0 1 71.6 29.573 9.459 9.459 0 0 0 11.792-.665l27.1-23.771 28.145 28.145-23.771 27.1a9.584 9.584 0 0 0 -.665 11.792 174.831 174.831 0 0 1 29.573 71.6 9.5 9.5 0 0 0 8.747 7.892l35.945 2.372z"/><path d="m352.3 157.83a124.468 124.468 0 1 0 124.465 124.47 124.581 124.581 0 0 0 -124.465-124.47zm0 229.924a105.457 105.457 0 1 1 105.454-105.454 105.515 105.515 0 0 1 -105.454 105.454z" transform="translate(2.091 2.09)"/><path d="m350.774 236.557c12.552 0 22.819 7.892 22.819 17.685a9.507 9.507 0 1 0 19.015 0c0-17.308-13.79-31.854-32.331-35.658v-5.42a9.507 9.507 0 1 0 -19.015 0v5.42c-18.446 3.8-32.331 18.259-32.331 35.658 0 12.17 6.845 28.24 39.462 36.418 16.639 4.183 25.1 10.176 25.1 17.973 0 9.794-10.176 17.685-22.819 17.685s-22.819-7.892-22.819-17.685a9.508 9.508 0 1 0 -19.015 0c0 17.307 13.79 31.854 32.331 35.658v5.42a9.508 9.508 0 1 0 19.015 0v-5.42c18.445-3.8 32.331-18.259 32.331-35.658 0-17.685-13.312-29.86-39.462-36.418-16.639-4.183-25.1-10.176-25.1-17.973 0-9.7 10.268-17.685 22.819-17.685z" transform="translate(3.614 2.952)"/></g></g></svg>