<?xml version="1.0" encoding="UTF-8"?>
<svg version="1.1" viewBox="150 30 700 600" xmlns="http://www.w3.org/2000/svg" xmlns:xlink="http://www.w3.org/1999/xlink">
 <g>
  <path d="m574.56 242.39-36.961-2.4258c-4.8516-23.055-13.812-44.707-26.691-64.492l24.359-27.812c3.2656-3.7344 3.0781-9.2383-0.375-12.785l-40.039-40.039c-3.4531-3.4531-9.0547-3.6406-12.785-0.375l-27.812 24.359c-19.691-12.879-41.348-21.746-64.492-26.691l-2.4258-36.961c-0.003907-4.6719-4.1094-8.4961-9.0547-8.4961h-56.559c-4.9453 0-8.9609 3.8281-9.332 8.7734l-2.4258 36.961c-23.148 4.8516-44.707 13.812-64.492 26.691l-27.812-24.359c-3.7344-3.2656-9.332-3.0781-12.785 0.375l-40.039 40.039c-3.4531 3.4531-3.6406 9.0547-0.375 12.785l24.359 27.812c-12.879 19.691-21.746 41.348-26.691 64.492l-36.961 2.4258c-4.6758 0.097657-8.5 4.1094-8.5 9.0547v56.559c0 4.9453 3.8281 8.9609 8.7734 9.332l36.961 2.4258c4.8516 23.148 13.812 44.707 26.691 64.492l-24.359 27.812c-3.2656 3.7344-3.0781 9.2383 0.375 12.785l40.039 40.039c3.4531 3.4531 9.0547 3.6406 12.785 0.375l27.812-24.359c19.691 12.879 41.348 21.746 64.492 26.691l2.4258 36.961c0.28125 4.9453 4.3867 8.7734 9.332 8.7734h56.559c4.9453 0 8.9609-3.8281 9.332-8.7734l2.4258-36.961c23.148-4.8516 44.707-13.812 64.492-26.691l27.812 24.359c3.7344 3.2656 9.332 3.0781 12.785-0.375l40.039-40.039c3.4531-3.4531 3.6406-9.0547 0.375-12.785l-24.359-27.812c12.879-19.691 21.746-41.348 26.691-64.492l36.961-2.4258c4.9453-0.28125 8.7734-4.3867 8.7734-9.332v-56.559c-0.55078-4.9453-4.375-8.957-9.3242-9.332zm-9.8906 57.121-35.375 2.332c-4.293 0.28125-7.8398 3.4531-8.5859 7.7461-4.3867 25.574-14.188 49.188-29.027 70.281-2.5195 3.5469-2.2383 8.3086 0.65234 11.574l23.332 26.602-27.625 27.625-26.602-23.332c-3.2656-2.8945-8.0273-3.0781-11.574-0.65234-21.094 14.84-44.707 24.641-70.281 29.027-4.293 0.74609-7.4648 4.293-7.7461 8.5859l-2.3281 35.371h-39.105l-2.332-35.375c-0.28125-4.293-3.4531-7.8398-7.7461-8.5859-25.574-4.3867-49.188-14.188-70.281-29.027-3.5469-2.5195-8.3086-2.2383-11.574 0.65234l-26.602 23.332-27.625-27.625 23.332-26.602c2.8945-3.2656 3.0781-8.0273 0.65234-11.574-14.84-21.094-24.641-44.707-29.027-70.281-0.74609-4.293-4.293-7.4648-8.5859-7.7461l-35.281-2.3281v-39.105l35.375-2.332c4.293-0.28125 7.8398-3.4531 8.5859-7.7461 4.3867-25.574 14.188-49.188 29.027-70.281 2.5195-3.5469 2.2383-8.3086-0.65234-11.574l-23.332-26.602 27.625-27.625 26.602 23.332c3.2656 2.8945 8.0273 3.0781 11.574 0.65234 21.094-14.84 44.707-24.641 70.281-29.027 4.293-0.74609 7.4648-4.293 7.7461-8.5859l2.3281-35.281h39.105l2.332 35.375c0.28125 4.293 3.4531 7.8398 7.7461 8.5859 25.574 4.3867 49.188 14.188 70.281 29.027 3.5469 2.5195 8.3086 2.2383 11.574-0.65234l26.602-23.332 27.625 27.625-23.332 26.602c-2.8945 3.2656-3.0781 8.0273-0.65234 11.574 14.84 21.094 24.641 44.707 29.027 70.281 0.74609 4.293 4.293 7.4648 8.5859 7.7461l35.281 2.3281z"/>
  <path d="m350 157.83c-67.387 0-122.17 54.785-122.17 122.17s54.785 122.17 122.17 122.17 122.17-54.785 122.17-122.17-54.785-122.17-122.17-122.17zm0 225.68c-57.121 0-103.51-46.387-103.51-103.51s46.387-103.51 103.51-103.51 103.51 46.387 103.51 103.51-46.387 103.51-103.51 103.51z"/>
  <path d="m350 235.95c12.32 0 22.398 7.7461 22.398 17.359 0 5.1328 4.1992 9.332 9.332 9.332 5.1328 0 9.332-4.1992 9.332-9.332 0-16.988-13.535-31.266-31.734-35v-5.3203c0-5.1328-4.1992-9.332-9.332-9.332-5.1328 0-9.332 4.1992-9.332 9.332v5.3203c-18.105 3.7344-31.734 17.922-31.734 35 0 11.945 6.7188 27.719 38.734 35.746 16.332 4.1055 24.641 9.9883 24.641 17.641 0 9.6133-9.9883 17.359-22.398 17.359-12.414 0-22.398-7.7461-22.398-17.359 0-5.1328-4.1992-9.332-9.332-9.332-5.1328 0-9.332 4.1992-9.332 9.332 0 16.988 13.535 31.266 31.734 35v5.3203c0 5.1328 4.1992 9.332 9.332 9.332 5.1328 0 9.332-4.1992 9.332-9.332v-5.3203c18.105-3.7344 31.734-17.922 31.734-35 0-17.359-13.066-29.309-38.734-35.746-16.332-4.1055-24.641-9.9883-24.641-17.641 0-9.5195 10.078-17.359 22.398-17.359z"/>
</svg>
